<svg id="Layer_1" data-name="Layer 1" xmlns="http://www.w3.org/2000/svg" viewBox="0 0 125.46 62.59"><defs><style>.cls-1{fill:#27aae0;}</style></defs><title>vesi</title><polygon class="cls-1" points="81.21 48.16 62.66 29.68 44.21 48.13 25.7 29.68 0 55.38 7.21 62.59 25.73 44.06 44.16 62.59 44.21 62.54 62.69 44.06 81.21 62.58 99.72 44.06 118.25 62.59 125.46 55.38 99.69 29.68 81.21 48.16"/><polygon class="cls-1" points="25.73 14.39 44.16 32.91 44.21 32.87 62.69 14.39 81.21 32.91 99.72 14.39 118.25 32.91 125.46 25.7 99.69 0 81.21 18.49 62.66 0 44.21 18.45 25.7 0 0 25.7 7.21 32.91 25.73 14.39"/></svg>