<svg id="Layer_1" data-name="Layer 1" xmlns="http://www.w3.org/2000/svg" xmlns:xlink="http://www.w3.org/1999/xlink" viewBox="0 0 53.81 112.89"><defs><style>.cls-1{fill:none;}.cls-2{fill:#243364;}.cls-3{clip-path:url(#clip-path);}</style><clipPath id="clip-path"><rect class="cls-1" x="-554" y="-289.21" width="841.89" height="595.28"/></clipPath></defs><title>polku</title><polygon class="cls-2" points="53.81 12.55 47.03 5.96 38.33 14.41 29.63 5.96 22.85 12.55 31.55 21 22.85 29.45 29.63 36.03 38.33 27.59 47.03 36.03 53.81 29.45 45.11 21 53.81 12.55"/><g class="cls-3"><path class="cls-2" d="M21.64,77.88a24.16,24.16,0,0,1-6.44-11.51L5.84,68.44a33.41,33.41,0,0,0,8.94,16l.08.08a22.3,22.3,0,0,1,1.51,1.68l7.49-5.82a30.94,30.94,0,0,0-2.23-2.45"/><path class="cls-2" d="M22.19,43.4,15.5,36.72A33.15,33.15,0,0,0,5.41,55.57L14.88,57A24,24,0,0,1,22.19,43.4"/><path class="cls-2" d="M21.28,94.52a21,21,0,0,1,1.4,7.37,19,19,0,0,1-1.55,7.45L30,112.89a28,28,0,0,0,2.28-11,30.05,30.05,0,0,0-2-10.55Z"/></g></svg>