<svg id="Layer_1" data-name="Layer 1" xmlns="http://www.w3.org/2000/svg" viewBox="0 0 283.46 108.63"><defs><style>.cls-1{fill:#253764;}</style></defs><title>Artboard 2</title><path class="cls-1" d="M11.71,31.63H0V57.89H6.55V47.34h5.2c6,0,8.66-4.24,8.66-7.93S17.71,31.63,11.71,31.63ZM9.59,42.53h-3V36.44H8.86c3.54,0,4.81.81,4.81,3C13.67,41.45,12.59,42.53,9.59,42.53Z"/><path class="cls-1" d="M41.51,31.57H33.92L23.33,57.83h6.93l2-5.2H44l2.16,5.2h7ZM34,48l3.85-10.2L42,48Z"/><path class="cls-1" d="M75.62,45.57c3-1.39,4.51-3.54,4.51-6.43,0-3.93-3.2-7.55-8.59-7.55H59.8V57.85h6.55V47.18h1.89c3.54,0,4.58,5,7.39,10.67h7.2C79.12,50.15,78.32,46.91,75.62,45.57Zm-5.81-3.2H66.34v-6h3.31c2.46,0,3.74,1,3.74,3C73.39,41.6,71.62,42.37,69.81,42.37Z"/><polygon class="cls-1" points="112.15 31.57 86.59 31.57 86.59 36.38 96.1 36.38 96.1 57.83 102.64 57.83 102.64 36.38 112.15 36.38 112.15 31.57"/><rect class="cls-1" x="120.46" y="31.55" width="6.55" height="26.26"/><path class="cls-1" d="M150.45,31.2c-9.9,0-15.06,7.12-15.06,13.48,0,6.7,5.43,13.48,15.06,13.48,9.43,0,15-6.74,15-13.48C165.46,38.37,160.34,31.2,150.45,31.2Zm0,21.49c-5,0-8.32-3.2-8.32-8s3.31-8,8.32-8,8.28,3.2,8.28,8S155.41,52.69,150.45,52.69Z"/><path class="cls-1" d="M70.08,78.49c.64.94,1.06,1.41,2,1.41a1.85,1.85,0,0,0,1.82-1.29A1.56,1.56,0,0,0,74,78a2.64,2.64,0,0,0-1.35-2.17,6,6,0,0,0-3-.59c-2.17,0-5.28.47-7.21,2.93A5.49,5.49,0,0,0,61,81.78,6.09,6.09,0,0,0,62.8,86,15.25,15.25,0,0,0,65,88c2.64,2.11,4.34,3.11,5.45,4.52A4,4,0,0,1,71.31,95a2.93,2.93,0,0,1-.76,2.11c-1.35,1.47-4,1.41-4,1.41a4.81,4.81,0,0,1-3.34-1.05,2.83,2.83,0,0,1-.65-1.35,3.84,3.84,0,0,0-.12-1.29,2.13,2.13,0,0,0-2.11-1.47A1.77,1.77,0,0,0,58.41,95c0,2.64,2.4,4.46,4.63,5a14.09,14.09,0,0,0,2.64.23c2.29,0,5.69-.47,7.8-3.28a7.4,7.4,0,0,0,1.35-4,6,6,0,0,0-2.17-4.63,58.19,58.19,0,0,0-4.81-3.69,11.42,11.42,0,0,1-3.52-3.75A2.21,2.21,0,0,1,64,79.67,2.29,2.29,0,0,1,65,77.85a3.56,3.56,0,0,1,2.11-.59,4.13,4.13,0,0,1,2.52.76C69.9,78.2,69.84,78.2,70.08,78.49Z"/><path class="cls-1" d="M93,79.12c.59,1.35,1.11,2.17,2.52,2.23a2.77,2.77,0,0,0,2.29-1.76,4,4,0,0,0,.12-.88,3.72,3.72,0,0,0-2.52-3.4,7,7,0,0,0-1.47-.23c-1.88,0-6.1.76-9.68,6.33a21.35,21.35,0,0,0-1.76,3.34c-.12.35-.29.64-.41,1A20.41,20.41,0,0,0,81,91.55c0,.76,0,5,3.64,7.45a6.74,6.74,0,0,0,4.34,1.17,14.15,14.15,0,0,0,7.21-2,7.75,7.75,0,0,0,3.28-4.46c0-.41-.29-1-.82-1s-.94.65-1.23,1.17A6.88,6.88,0,0,1,96,95.83a7.7,7.7,0,0,1-5,1.76,5.91,5.91,0,0,1-3.28-.94,4.66,4.66,0,0,1-1.52-1.76,7.63,7.63,0,0,1-1-4.34c0-5,1.52-8.85,3.17-10.79,1.41-1.58,2.58-2.05,3.17-2.05C92.57,77.71,92.93,78.94,93,79.12Z"/><path class="cls-1" d="M123.2,77.94a6,6,0,0,0-1.58-1.76,6.64,6.64,0,0,0-4.52-1.41,12,12,0,0,0-8.27,3.4,15.87,15.87,0,0,0-2.81,4.4,25.09,25.09,0,0,0-1.82,8.74,10.76,10.76,0,0,0,.35,3,8.43,8.43,0,0,0,5.39,5.69,9.67,9.67,0,0,0,2.46.29,10.93,10.93,0,0,0,8.21-3.81,14.2,14.2,0,0,0,1.88-2.87,22.16,22.16,0,0,0,2.17-9.44A11.33,11.33,0,0,0,123.2,77.94Zm-3,8.21a19.92,19.92,0,0,1-2.4,9.56c-1,1.64-1.58,2.05-2.46,2.35a5.18,5.18,0,0,1-1.58.23,6.16,6.16,0,0,1-2.64-.59c-1.82-.94-2.11-2.46-2.29-4a18.27,18.27,0,0,1-.23-3,25.47,25.47,0,0,1,1.58-9.44,11.14,11.14,0,0,1,1-2.05,4.74,4.74,0,0,1,3.64-2.29A4.5,4.5,0,0,1,118,78a5.81,5.81,0,0,1,.94,1.35A15.77,15.77,0,0,1,120.15,86.15Z"/><path class="cls-1" d="M132.49,78.65a2.35,2.35,0,0,1,1.64-.76,2.06,2.06,0,0,1,2.11,1.53,1.12,1.12,0,0,1,.06.59,21.49,21.49,0,0,1-.94,4.57c-.35,1.41-.7,2.81-1.11,4.22a20.74,20.74,0,0,0-1,5.5,5.56,5.56,0,0,0,1.64,4.23,5.84,5.84,0,0,0,3.92,1.53c1.17,0,2.93-.23,5.69-2.81.29-.29,1.23-1.23,2.11-2.29.53-.65.76-1.23,1.12-1.23A.31.31,0,0,1,148,94a2.88,2.88,0,0,1,0,1.23c-.06.59-.06,1.29-.06,1.93a3.38,3.38,0,0,0,3,3,9,9,0,0,0,6.69-3.64A5.28,5.28,0,0,0,158.77,94a1.17,1.17,0,0,0-1.06-1.11c-.82,0-1,1.11-1.06,1.29a1.72,1.72,0,0,1-.12.53,4.67,4.67,0,0,1-2.4,2.58,1.77,1.77,0,0,1-2.17-.92,7.26,7.26,0,0,1-.24-2.54,37,37,0,0,1,.76-6.92c.18-1.29.41-2.58.65-3.87.35-1.76.76-3.46,1.17-5.16.06-.29.12-.53.17-.76a4,4,0,0,0,.18-.82,1.07,1.07,0,0,0-1-1.17,3.09,3.09,0,0,0-.76.06c-.59.06-1.17.23-1.7.29s-1.58,0-1.58,1.06c0,.7,0,9.09-2.58,14.54-1.06,2.23-3.35,5.44-6,5.62A3.13,3.13,0,0,1,137.49,94a12.48,12.48,0,0,1,.46-3.83c.29-1.23.59-2.4.88-3.58.88-3.22,1.58-5.34,1.58-6.74a5.19,5.19,0,0,0-2.81-4.46,3.14,3.14,0,0,0-1.52-.35,7.91,7.91,0,0,0-4.22,1.76A5.21,5.21,0,0,0,130,79.64,1.11,1.11,0,0,0,131,80.7,1.05,1.05,0,0,0,132,80a2.25,2.25,0,0,0,.18-.64Z"/><path class="cls-1" d="M176.54,75.6a27,27,0,0,1-4.81-.12.6.6,0,0,1-.35-.59,3,3,0,0,1,.12-.7c.12-.82.23-1.58.35-2.4.29-1.76.55-2.9.84-4.66.06-.41.18-.82.23-1.23a6,6,0,0,0,.18-1c0-.76-.41-.82-.7-.82a34,34,0,0,0-3.84,1.41,1.16,1.16,0,0,0-.7,1.06,2.88,2.88,0,0,0,.24,1,6.73,6.73,0,0,1,.12,1.52,31,31,0,0,1-.52,4.36c-.06.53-.12,1.64-1,1.64a4.46,4.46,0,0,1-.88-.12c-.47-.06-.94-.06-1.47-.12-.24,0-.47-.06-.7-.06-1,0-1.06,1.29-1.06,1.35a1.63,1.63,0,0,0-.06.53.62.62,0,0,0,.7.59,2.83,2.83,0,0,1,.7,0,11.2,11.2,0,0,1,1.41.12c.82,0,1.11-.12,1.52.23a.81.81,0,0,1,.24.53,4,4,0,0,1-.12.76c-.35,3-.76,6.22-1.11,9.32-.12.82-.18,1.7-.29,2.58a18.63,18.63,0,0,0-.29,3.11,9,9,0,0,0,1,4.28,4.66,4.66,0,0,0,4,2.05,9.55,9.55,0,0,0,7-3.11,5.19,5.19,0,0,0,1.41-3.22,1.46,1.46,0,0,0-.65-1.47,1,1,0,0,0-.47-.12.72.72,0,0,0-.64.47c-.06.12-.06.23-.12.35s-.06.35-.06.53c-.18.53-.35,1.05-.59,1.58A4.34,4.34,0,0,1,174,97.53a2.65,2.65,0,0,1-.82.12,3.57,3.57,0,0,1-2.4-.88c-1.23-1.06-1.29-1.93-1.29-4.34a36.49,36.49,0,0,1,.35-5c.18-1.58.35-3.28.59-4.87.06-.88.23-1.64.35-2.58.06-.65,0-2.17.82-2.17a.74.74,0,0,1,.35.06,33.27,33.27,0,0,1,3.4.29c.59,0,1.12.12,1.76.12s.94-.59,1.17-1.23.29-.59.29-1a.53.53,0,0,0-.47-.59,2.12,2.12,0,0,0-.59.12A5.37,5.37,0,0,1,176.54,75.6Z"/><path class="cls-1" d="M279.71,58a44.41,44.41,0,0,0-11.55-33.62c-.22-.25-.46-.26-.21,0a46.36,46.36,0,0,1,8.4,31.82,10.29,10.29,0,0,0-4.95,0,8.64,8.64,0,0,0-1.24-10.94A43.85,43.85,0,0,0,262,19.72a25.84,25.84,0,0,0-5.09-4.9c-.17-.1-.21,0-.09.11,5.92,5.88,9.67,16.13,9.74,28.15l-.1,0c-6.69-1.94-12.18,2.09-12.1,9.31l-10.74-3.29a.81.81,0,0,1-.5-1l2.33-7.62.24-.77a2.49,2.49,0,1,1,3.64,2.89,10,10,0,0,0,8.53-2.72c5-5,3-15-5.88-15.36,3.32-3.27,2.94-8.11,1.81-11.28-.89-2.51-4.23-10.48-4.5-13.23-1.71,2.07-8.56,6.6-10.92,8.3A47,47,0,0,0,192.12,31H192c-2.95.07-7.56,1.79-9.45,8s1,10.19,3.39,11.89l.13.09A44.39,44.39,0,0,0,197.63,84c.22.25.46.26.22,0a46.33,46.33,0,0,1-8.43-31.47,10.6,10.6,0,0,0,4.56-.05,8.65,8.65,0,0,0,1.67,11.34,43.71,43.71,0,0,0,8.15,24.86,25.76,25.76,0,0,0,5.09,4.9c.17.1.21,0,.09-.11-5.86-5.82-9.6-15.92-9.74-27.78,6.54,1.72,11.86-2.29,11.78-9.4l10.74,3.29a.81.81,0,0,1,.5,1l-2.33,7.62-.24.77A2.49,2.49,0,1,1,216.06,66a10,10,0,0,0-8.53,2.72c-5,5-3,15,5.88,15.36-3.32,3.26-2.94,8.11-1.81,11.28.9,2.51,4.23,10.48,4.5,13.23,1.76-2.13,9-6.87,11.12-8.45l.15-.11a47,47,0,0,0,46.17-22.43c3-.12,7.46-1.88,9.32-8S282.06,59.76,279.71,58ZM236.54,9.85c-2.14,2.14-3.93,5.31-3.18,9-7.55-4.63-14.83,2.45-13.46,9.44a10,10,0,0,0,5.55,7,2.48,2.48,0,1,1,4.64-.36l-.24.77-2.33,7.62a.81.81,0,0,1-1,.54l-10.75-3.29c3.91-5.66,2-11.73-3.89-14.15C218.89,17,227.78,11.22,236.54,9.85ZM199.86,26.43a46.9,46.9,0,0,1,26.36-16.26A48.55,48.55,0,0,0,208,25.66a8.66,8.66,0,0,0-8.38,8.52,10.93,10.93,0,0,0-3.43-2.46A44.52,44.52,0,0,1,199.86,26.43ZM229,98.56a9.86,9.86,0,0,0,3-8.75c7.55,4.63,14.83-2.45,13.46-9.44a10,10,0,0,0-5.55-7,2.48,2.48,0,1,1-4.64.36l.24-.77,2.33-7.62a.81.81,0,0,1,1-.54l10.74,3.29c-3.95,5.71-2,11.85,4.06,14.22C246.64,91.54,237.78,97.27,229,98.56ZM265.93,82a46.91,46.91,0,0,1-26.36,16.26A48.42,48.42,0,0,0,257.66,83a8.65,8.65,0,0,0,8.15-8.5A10.74,10.74,0,0,0,269.45,77,44.36,44.36,0,0,1,265.93,82ZM279.3,68.58c-1.11,3.93-5.09,6.85-9.44,5.52a10.41,10.41,0,0,1-5.73-4.83.52.52,0,1,0-1,.35c.66,3.21.56,6.55-2.09,8.53a6.84,6.84,0,0,1-9.53-1.4c-2.14-2.72-.83-7.54,1.82-9.52a.49.49,0,0,0-.16-.92l-13.52-4.14a3.58,3.58,0,0,0-4.36,2.34l-2.51,8.23-.19.61c-1.83,6,6.51,9.2,9,4.3a7.05,7.05,0,0,1,.72,5.27c-1.82,6.8-9.53,6.21-12.9,1.48a.52.52,0,1,0-.92.48c2.07,5.72.18,9.29-2.66,12-2.42,2.27-5.47,3.67-7.93,5.85a28.48,28.48,0,0,0-1.37-3.74c-2.55-6.17-4.4-11.89,2.54-16.94a.52.52,0,1,0-.49-.92,9.22,9.22,0,0,1-6,0c-6-2.34-5.28-10.2-.29-12.45-.66,5.47,8,7.49,9.88,1.49l.18-.62,2.51-8.23a3.58,3.58,0,0,0-2.31-4.39L209,52.78c-.51-.16-.83.17-.65.68,1.09,3.13-.51,7.85-3.81,8.91a6.84,6.84,0,0,1-8.68-4.18c-1.09-3.12.7-5.94,3-8.24.51-.5,0-1.17-.62-.84a10.4,10.4,0,0,1-7.45.8,7.61,7.61,0,0,1-4.75-9.85c1.11-3.93,5.09-6.85,9.44-5.52a10.41,10.41,0,0,1,5.73,4.83.52.52,0,1,0,1-.35c-.66-3.21-.56-6.55,2.09-8.53a6.83,6.83,0,0,1,9.53,1.4c2.14,2.72.83,7.53-1.82,9.52a.49.49,0,0,0,.16.92l13.52,4.14a3.58,3.58,0,0,0,4.36-2.34l2.51-8.23.19-.61c1.83-6-6.51-9.2-9-4.3a7.05,7.05,0,0,1-.72-5.27c1.82-6.8,9.54-6.21,12.9-1.48a.52.52,0,1,0,.92-.48c-2.07-5.72-.18-9.29,2.66-12C242,9.53,245,8.13,247.46,5.95a28.55,28.55,0,0,0,1.37,3.74c2.55,6.17,4.4,11.89-2.54,16.94a.52.52,0,1,0,.49.92,9.23,9.23,0,0,1,6,0c6,2.34,5.28,10.2.29,12.45.66-5.47-8-7.49-9.88-1.49l-.18.61-2.52,8.23a3.58,3.58,0,0,0,2.31,4.39l13.52,4.14c.51.16.83-.17.65-.67-1.09-3.13.51-7.85,3.81-8.91a6.84,6.84,0,0,1,8.68,4.18c1.09,3.12-.7,5.94-3,8.24a.52.52,0,1,0,.62.84,10.4,10.4,0,0,1,7.45-.8A7.61,7.61,0,0,1,279.3,68.58Z"/></svg>